<svg xmlns="http://www.w3.org/2000/svg" viewBox="0 0 95.91 57.67"><defs><style>.cls-1{fill:#fff;}</style></defs><path class="cls-1" d="M14.26,53.77A28.34,28.34,0,0,1,4,42.82,30.36,30.36,0,0,1,.35,28.39V25.24h33V36.56H16.78a11.59,11.59,0,0,0,4.8,6.6,15.05,15.05,0,0,0,8.48,2.32,14.53,14.53,0,0,0,8-2.21,14.74,14.74,0,0,0,5.33-6,18.75,18.75,0,0,0,1.88-8.44,17.22,17.22,0,0,0-2-8.14,14.87,14.87,0,0,0-5.4-5.85,14.5,14.5,0,0,0-7.8-2.14A13.67,13.67,0,0,0,23,14.59a14.15,14.15,0,0,0-5.1,5.33H2a24.38,24.38,0,0,1,5.78-10,30.5,30.5,0,0,1,10-7.09,29.13,29.13,0,0,1,12-2.59A30.83,30.83,0,0,1,44.6,3.94a28.15,28.15,0,0,1,10.84,10.2,27.49,27.49,0,0,1,4,14.7,28.4,28.4,0,0,1-3.94,14.7A28.81,28.81,0,0,1,44.83,54.07,29.36,29.36,0,0,1,30,57.94,29.21,29.21,0,0,1,14.26,53.77Z" transform="translate(-0.35 -0.26)"/><path class="cls-1" d="M58.46,1.31H72.63V38.66q0,3.68,1,5.21a3.64,3.64,0,0,0,3.23,1.54A3.46,3.46,0,0,0,80,43.84,9.75,9.75,0,0,0,81.18,39H96.26v.38a19.52,19.52,0,0,1-2.44,10,16.06,16.06,0,0,1-6.67,6.38,21,21,0,0,1-9.71,2.17,19.82,19.82,0,0,1-10.65-2.7,16.8,16.8,0,0,1-6.45-7q-1.87-4-1.87-12.52Z" transform="translate(-0.35 -0.26)"/></svg>
