<svg xmlns="http://www.w3.org/2000/svg" viewBox="0 0 95.9 101.7"><style type="text/css">.st0{fill:#fff;}</style><path class="st0" d="M13.9 53.5c-4.3-2.7-7.9-6.4-10.3-11C1.3 38.1 0 33.2 0 28.1V25h33v11.3H16.4c0.7 2.7 2.5 5.1 4.8 6.6 2.5 1.6 5.5 2.4 8.5 2.3 2.8 0.1 5.6-0.7 8-2.2 2.3-1.5 4.1-3.5 5.3-6 1.3-2.6 1.9-5.5 1.9-8.4 0-2.8-0.7-5.6-2-8.1 -1.2-2.4-3.1-4.4-5.4-5.9 -2.3-1.4-5-2.2-7.8-2.1 -2.5 0-4.9 0.6-7.1 1.9 -2.1 1.3-3.9 3.1-5.1 5.3H1.6c1.1-3.7 3.1-7.2 5.8-10 2.8-3 6.2-5.4 10-7.1 3.8-1.7 7.9-2.6 12-2.6 5.2 0 10.3 1.2 14.8 3.7 4.5 2.4 8.2 5.9 10.8 10.2 2.7 4.4 4.1 9.5 4 14.7 0 5.2-1.3 10.2-3.9 14.7 -2.6 4.4-6.2 8-10.7 10.5 -4.5 2.6-9.6 3.9-14.8 3.9C24.1 57.8 18.7 56.4 13.9 53.5z"/><path class="st0" d="M58.1 1h14.2v37.4c0 2.5 0.3 4.2 1 5.2 0.7 1 2 1.6 3.2 1.5 1.3 0.1 2.5-0.5 3.1-1.6 0.8-1.5 1.2-3.2 1.2-4.8h15.1v0.4c0.1 3.5-0.7 6.9-2.4 10 -1.6 2.7-3.9 5-6.7 6.4 -3 1.5-6.3 2.2-9.7 2.2 -3.7 0.1-7.4-0.8-10.7-2.7 -2.8-1.7-5-4.1-6.5-7 -1.2-2.7-1.9-6.8-1.9-12.5L58.1 1z"/><path class="st0" d="M5 62.4v11.8h4.5v3.4H1.1V62.4H5z"/><path class="st0" d="M10.2 70.3c0-1.5 0.3-2.9 1-4.2 0.7-1.2 1.7-2.3 2.9-3 1.2-0.7 2.7-1.1 4.1-1.1 1.4 0 2.8 0.3 4 1 1.2 0.7 2.2 1.6 2.9 2.8 0.7 1.2 1.1 2.5 1.1 3.9 0 1.4-0.3 2.8-1 4 -0.7 1.2-1.6 2.2-2.8 3 -1.2 0.7-2.6 1.1-4 1.1 -1.4 0-2.8-0.4-4-1 -1.2-0.6-2.2-1.5-3-2.7C10.6 73 10.2 71.7 10.2 70.3zM22.3 70c0-0.8-0.2-1.5-0.5-2.2 -0.3-0.7-0.8-1.2-1.5-1.7 -1.3-0.8-3-0.8-4.3 0 -0.6 0.4-1.1 1-1.5 1.7 -0.4 0.7-0.5 1.4-0.5 2.2 0 0.8 0.2 1.6 0.5 2.3 0.3 0.7 0.9 1.2 1.5 1.6 0.6 0.4 1.4 0.6 2.2 0.6 0.7 0 1.5-0.2 2.1-0.6 0.6-0.4 1.1-1 1.5-1.6C22.2 71.5 22.4 70.8 22.3 70L22.3 70z"/><path class="st0" d="M31.1 75.4l-0.8 2.2h-4.2l6.1-15.2h3.1l6 15.2h-4.2l-0.7-2.2H31.1zM32.1 72.3h3.2l-1.6-5.2h-0.1L32.1 72.3z"/><path class="st0" d="M47.9 62.4c1.5-0.1 3.1 0.2 4.5 0.9 1.1 0.6 2 1.6 2.6 2.7 0.6 1.2 1 2.6 0.9 4 0.2 2.1-0.6 4.1-2 5.7 -1.5 1.4-3.6 2.1-5.7 2h-5.5V62.4H47.9zM51.9 70c0.1-1.1-0.3-2.2-1-3.1 -0.7-0.7-1.6-1.2-2.6-1.1h-1.8v8.4h1.8c1 0.1 2-0.3 2.7-1.1C51.7 72.2 52 71.1 51.9 70z"/><path class="st0" d="M62 62.4v15.2h-3.9V62.4H62z"/><path class="st0" d="M68.5 77.6h-3.7V62.4h3.3L74 72l-0.2-9.6h3.7v15.2h-3.4l-5.8-9.3L68.5 77.6z"/><path class="st0" d="M87.8 77.9c-1.4 0-2.8-0.3-4.1-1.1 -1.2-0.7-2.2-1.7-2.9-2.9 -0.7-1.2-1.1-2.6-1.1-4 0-1.4 0.4-2.8 1.1-4 0.7-1.2 1.8-2.1 3-2.8 1.3-0.7 2.7-1 4.1-1 1.1 0 2.2 0.2 3.3 0.7 1 0.4 1.9 1.1 2.7 1.9 0.7 0.8 1.3 1.7 1.6 2.7h-4.3c-0.3-0.6-0.8-1.1-1.4-1.5 -0.6-0.4-1.3-0.5-2-0.5 -0.8 0-1.5 0.2-2.1 0.6 -0.6 0.4-1.1 0.9-1.5 1.6 -0.4 0.7-0.5 1.5-0.5 2.2 0 0.8 0.2 1.6 0.5 2.3 0.3 0.7 0.8 1.2 1.5 1.6 0.7 0.4 1.4 0.6 2.2 0.6 0.8 0 1.6-0.2 2.3-0.6 0.6-0.4 1.1-1.1 1.3-1.8h-4.5v-3.1h9v0.8c0 1.4-0.3 2.8-1 4 -0.7 1.2-1.6 2.3-2.8 3C90.7 77.5 89.3 77.9 87.8 77.9z"/><path class="st0" d="M5.8 94.6v5.9H1.3V82.1h6c1.5-0.1 3 0.2 4.3 0.7 1 0.5 1.9 1.2 2.4 2.2 0.6 1 0.9 2.2 0.9 3.5 0 1.4-0.4 2.7-1.2 3.8 -0.8 1.1-2 1.8-3.3 2l5 6.3h-5.4L5.8 94.6 5.8 94.6zM10.5 88.7c0-0.7-0.3-1.4-0.8-1.8 -0.6-0.5-1.4-0.7-2.1-0.7H5.8v5.1h1.7c0.8 0.1 1.6-0.2 2.2-0.6C10.3 90.2 10.6 89.5 10.5 88.7z"/><path class="st0" d="M27.7 82.1v4.1H22v2.9h5.5v4.1H22v3.2h5.7v4.1H17.5V82.1H27.7z"/><path class="st0" d="M36.2 85.7c-0.4 0-0.8 0.1-1.1 0.4 -0.3 0.2-0.5 0.6-0.5 1 0 0.5 0.2 1 0.7 1.2 0.7 0.5 1.5 0.9 2.4 1.2 1.1 0.4 2.1 1 3.1 1.7 0.6 0.4 1.2 1 1.5 1.7 0.3 0.7 0.5 1.4 0.5 2.2 0.1 1.6-0.5 3.1-1.7 4.2 -1.3 1.1-3 1.6-4.7 1.5 -1.8 0.1-3.5-0.5-4.8-1.6 -1.2-1.2-1.9-2.8-1.8-4.5v-0.4h4.7c0 0.7 0.2 1.3 0.5 1.8 0.3 0.4 0.8 0.7 1.4 0.7 0.5 0 0.9-0.2 1.2-0.5 0.7-0.6 0.7-1.7 0-2.4 -0.1-0.1-0.3-0.2-0.4-0.3 -0.7-0.5-1.5-0.9-2.4-1.2l-0.2-0.1c-0.1 0-0.2-0.1-0.3-0.1 -1.3-0.4-2.4-1.2-3.3-2.2 -0.7-0.8-1.1-1.9-1.1-3 0-1 0.3-2 0.9-2.8 0.6-0.8 1.4-1.5 2.4-1.9 1-0.5 2.1-0.7 3.2-0.7 1.1 0 2.2 0.3 3.3 0.8 0.9 0.4 1.7 1.1 2.2 1.9 0.5 0.9 0.8 2 0.7 3h-4.6c0-0.5-0.2-1-0.5-1.4C37 85.9 36.6 85.7 36.2 85.7z"/><path class="st0" d="M58.9 93.4c0.1 1.5-0.2 3-0.9 4.3 -0.6 1-1.4 1.8-2.5 2.3 -1.1 0.6-2.4 0.8-3.6 0.8 -1.4 0-2.7-0.3-3.9-0.9 -1-0.6-1.9-1.4-2.5-2.5 -0.6-1.3-0.8-2.7-0.8-4.1V82.1h4.7v11.2c-0.1 0.9 0.1 1.8 0.6 2.6 0.4 0.6 1.1 0.9 1.8 0.8 0.7 0.1 1.3-0.2 1.8-0.7 0.4-0.8 0.6-1.7 0.5-2.6V82.1h4.7L58.9 93.4z"/><path class="st0" d="M77.4 86.7l-3.9 13.8h-3.1l-4-13.9 0.2 13.9h-4.3V82.1h6l3.7 12.1 0 0 3.6-12.1h6.2v18.4h-4.4L77.4 86.7 77.4 86.7z"/><path class="st0" d="M95.2 82.1v4.1h-5.7v2.9H95v4.1h-5.5v3.2h5.7v4.1H84.9V82.1H95.2z"/></svg>
